# xmcd
#
# Track frame offsets:
#	150
#	18546
#	33789
#	42774
#	61623
#	82181
#	99844
#	119385
#	135356
#	151653
#	171764
#	188440
#	206447
#	220017
#	239428
#	254630
#	269412
#	281292
#
# Disc length: 3970 seconds
#
# Revision: 4
# Processed by: cddbd v1.5.2PL0 Copyright (c) Steve Scherf et al.
# Submitted via: EasyCDDAExtractor 16.0.6.1
#
DISCID=e60f8012
DTITLE=Συλλογικός δίσκος - Για τον Γρηγόρη-Συν. στ. Ειρ. κ Φιλίας 1
DYEAR=2002
DGENRE=Ποικίλη
TTITLE0=Γαλάνη Δήμητρα - Αμφιβολίες
TTITLE1=Γαλάνη Δήμητρα - Όταν σημάνει η ώρα
TTITLE2=Καλογιάννης Αντώνης - Ρίξε μιά ζαριά καλή
TTITLE3=Καλογιάννης Αντώνης - Το φεγγάρι κάνει βόλτα
TTITLE4=Κότσιρας Γιάννης - Ο καϋμός
TTITLE5=Κότσιρας Γιάννης - Πάει ο καιρός
TTITLE6=Μακεδόνας Κώστας - Σαββατόβραδο στην Καισαριανή
TTITLE7=Μακεδόνας Κώστας - Ένα δειλινό
TTITLE8=Μαχαιρίτσας Λαυρέντης - Όμορφη πόλη
TTITLE9=Μητροπάνος Δημήτρης - Βρέχει στην φτωχογειτονιά
TTITLE10=Μητροπάνος Δημήτρης - Ο κυρ Θάνος
TTITLE11=Μητσιάς Μανώλης - Το τραγούδι της ξενητειάς
TTITLE12=Μητσιάς Μανώλης - Της αγάπης αίματα
TTITLE13=Μπάσης Δημήτρης - Θα σημάνουν οι καμπάνες
TTITLE14=Μπάσης Δημήτρης - Μέρα Μαγιού μού μίσεψες
TTITLE15=Μπιθικώτσης Γρ. Γρηγόρης - Στου Μπελαμή το ουζερί
TTITLE16=Μπιθικώτσης Γρ. Γρηγόρης - Ένα αμάξι με δυό άλογα
TTITLE17=Μπιθικώτσης Γρ. Γρηγόρης-Ανδρεάτος Γεράσιμος - Φραγκοσυριανή
EXTD=
EXTT0=
EXTT1=
EXTT2=
EXTT3=
EXTT4=
EXTT5=
EXTT6=
EXTT7=
EXTT8=
EXTT9=
EXTT10=
EXTT11=
EXTT12=
EXTT13=
EXTT14=
EXTT15=
EXTT16=
EXTT17=
PLAYORDER=
